<mxfile host="app.diagrams.net" modified="2023-08-25T13:50:04.112Z" agent="Mozilla/5.0 (Windows NT 10.0; Win64; x64) AppleWebKit/537.36 (KHTML, like Gecko) Chrome/115.0.0.0 Safari/537.36" etag="mCHbuawwNLCDZjk8YreG" version="21.6.9" type="github">
  <diagram id="R2lEEEUBdFMjLlhIrx00" name="Page-1">
    <mxGraphModel dx="1434" dy="790" grid="1" gridSize="10" guides="1" tooltips="1" connect="1" arrows="1" fold="1" page="1" pageScale="1" pageWidth="850" pageHeight="1100" math="0" shadow="0" extFonts="Permanent Marker^https://fonts.googleapis.com/css?family=Permanent+Marker">
      <root>
        <mxCell id="0" />
        <mxCell id="1" parent="0" />
        <mxCell id="9SZ4BjFvW9n5TUdodfRy-33" style="edgeStyle=orthogonalEdgeStyle;rounded=0;orthogonalLoop=1;jettySize=auto;html=1;exitX=1;exitY=0.5;exitDx=0;exitDy=0;entryX=0;entryY=0.5;entryDx=0;entryDy=0;endArrow=none;endFill=0;" edge="1" parent="1" source="9SZ4BjFvW9n5TUdodfRy-1" target="9SZ4BjFvW9n5TUdodfRy-15">
          <mxGeometry relative="1" as="geometry" />
        </mxCell>
        <mxCell id="9SZ4BjFvW9n5TUdodfRy-1" value="FORNECEDORES" style="rounded=0;whiteSpace=wrap;html=1;" vertex="1" parent="1">
          <mxGeometry x="50" y="330" width="120" height="60" as="geometry" />
        </mxCell>
        <mxCell id="9SZ4BjFvW9n5TUdodfRy-47" style="edgeStyle=orthogonalEdgeStyle;shape=connector;rounded=0;orthogonalLoop=1;jettySize=auto;html=1;exitX=0.5;exitY=1;exitDx=0;exitDy=0;entryX=0.5;entryY=0;entryDx=0;entryDy=0;labelBackgroundColor=default;strokeColor=default;fontFamily=Helvetica;fontSize=11;fontColor=default;endArrow=none;endFill=0;" edge="1" parent="1" source="9SZ4BjFvW9n5TUdodfRy-2" target="9SZ4BjFvW9n5TUdodfRy-16">
          <mxGeometry relative="1" as="geometry" />
        </mxCell>
        <mxCell id="9SZ4BjFvW9n5TUdodfRy-2" value="SERVIÃ‡OS" style="rounded=0;whiteSpace=wrap;html=1;" vertex="1" parent="1">
          <mxGeometry x="380" y="330" width="120" height="60" as="geometry" />
        </mxCell>
        <mxCell id="9SZ4BjFvW9n5TUdodfRy-43" style="edgeStyle=orthogonalEdgeStyle;shape=connector;rounded=0;orthogonalLoop=1;jettySize=auto;html=1;exitX=1;exitY=0.5;exitDx=0;exitDy=0;entryX=0;entryY=0.5;entryDx=0;entryDy=0;labelBackgroundColor=default;strokeColor=default;fontFamily=Helvetica;fontSize=11;fontColor=default;endArrow=none;endFill=0;" edge="1" parent="1" source="9SZ4BjFvW9n5TUdodfRy-15" target="9SZ4BjFvW9n5TUdodfRy-2">
          <mxGeometry relative="1" as="geometry" />
        </mxCell>
        <mxCell id="9SZ4BjFvW9n5TUdodfRy-15" value="OFERECE" style="rhombus;whiteSpace=wrap;html=1;" vertex="1" parent="1">
          <mxGeometry x="210" y="330" width="130" height="60" as="geometry" />
        </mxCell>
        <mxCell id="9SZ4BjFvW9n5TUdodfRy-48" style="edgeStyle=orthogonalEdgeStyle;shape=connector;rounded=0;orthogonalLoop=1;jettySize=auto;html=1;exitX=0.5;exitY=1;exitDx=0;exitDy=0;entryX=0.5;entryY=0;entryDx=0;entryDy=0;labelBackgroundColor=default;strokeColor=default;fontFamily=Helvetica;fontSize=11;fontColor=default;endArrow=none;endFill=0;" edge="1" parent="1" source="9SZ4BjFvW9n5TUdodfRy-16" target="9SZ4BjFvW9n5TUdodfRy-17">
          <mxGeometry relative="1" as="geometry" />
        </mxCell>
        <mxCell id="9SZ4BjFvW9n5TUdodfRy-16" value="OFERECE" style="rhombus;whiteSpace=wrap;html=1;" vertex="1" parent="1">
          <mxGeometry x="375" y="440" width="130" height="60" as="geometry" />
        </mxCell>
        <mxCell id="9SZ4BjFvW9n5TUdodfRy-50" style="edgeStyle=orthogonalEdgeStyle;shape=connector;rounded=0;orthogonalLoop=1;jettySize=auto;html=1;exitX=0.5;exitY=1;exitDx=0;exitDy=0;entryX=0.5;entryY=0;entryDx=0;entryDy=0;labelBackgroundColor=default;strokeColor=default;fontFamily=Helvetica;fontSize=11;fontColor=default;endArrow=none;endFill=0;" edge="1" parent="1" source="9SZ4BjFvW9n5TUdodfRy-17" target="9SZ4BjFvW9n5TUdodfRy-49">
          <mxGeometry relative="1" as="geometry" />
        </mxCell>
        <mxCell id="9SZ4BjFvW9n5TUdodfRy-17" value="PRODUTO" style="rounded=0;whiteSpace=wrap;html=1;" vertex="1" parent="1">
          <mxGeometry x="380" y="550" width="120" height="60" as="geometry" />
        </mxCell>
        <mxCell id="9SZ4BjFvW9n5TUdodfRy-42" style="edgeStyle=orthogonalEdgeStyle;shape=connector;rounded=0;orthogonalLoop=1;jettySize=auto;html=1;exitX=1;exitY=0.5;exitDx=0;exitDy=0;entryX=0;entryY=0.5;entryDx=0;entryDy=0;labelBackgroundColor=default;strokeColor=default;fontFamily=Helvetica;fontSize=11;fontColor=default;endArrow=none;endFill=0;" edge="1" parent="1" source="9SZ4BjFvW9n5TUdodfRy-18" target="9SZ4BjFvW9n5TUdodfRy-20">
          <mxGeometry relative="1" as="geometry" />
        </mxCell>
        <mxCell id="9SZ4BjFvW9n5TUdodfRy-18" value="CLIENTES" style="rounded=0;whiteSpace=wrap;html=1;" vertex="1" parent="1">
          <mxGeometry x="50" y="760" width="120" height="60" as="geometry" />
        </mxCell>
        <mxCell id="9SZ4BjFvW9n5TUdodfRy-40" style="edgeStyle=orthogonalEdgeStyle;shape=connector;rounded=0;orthogonalLoop=1;jettySize=auto;html=1;exitX=1;exitY=0.5;exitDx=0;exitDy=0;entryX=0;entryY=0.5;entryDx=0;entryDy=0;labelBackgroundColor=default;strokeColor=default;fontFamily=Helvetica;fontSize=11;fontColor=default;endArrow=none;endFill=0;" edge="1" parent="1" source="9SZ4BjFvW9n5TUdodfRy-19" target="9SZ4BjFvW9n5TUdodfRy-21">
          <mxGeometry relative="1" as="geometry" />
        </mxCell>
        <mxCell id="9SZ4BjFvW9n5TUdodfRy-19" value="PEDIDOS" style="rounded=0;whiteSpace=wrap;html=1;" vertex="1" parent="1">
          <mxGeometry x="380" y="760" width="120" height="60" as="geometry" />
        </mxCell>
        <mxCell id="9SZ4BjFvW9n5TUdodfRy-41" style="edgeStyle=orthogonalEdgeStyle;shape=connector;rounded=0;orthogonalLoop=1;jettySize=auto;html=1;exitX=1;exitY=0.5;exitDx=0;exitDy=0;entryX=0;entryY=0.5;entryDx=0;entryDy=0;labelBackgroundColor=default;strokeColor=default;fontFamily=Helvetica;fontSize=11;fontColor=default;endArrow=none;endFill=0;" edge="1" parent="1" source="9SZ4BjFvW9n5TUdodfRy-20" target="9SZ4BjFvW9n5TUdodfRy-19">
          <mxGeometry relative="1" as="geometry" />
        </mxCell>
        <mxCell id="9SZ4BjFvW9n5TUdodfRy-20" value="REALIZA" style="rhombus;whiteSpace=wrap;html=1;" vertex="1" parent="1">
          <mxGeometry x="210" y="760" width="130" height="60" as="geometry" />
        </mxCell>
        <mxCell id="9SZ4BjFvW9n5TUdodfRy-39" style="edgeStyle=orthogonalEdgeStyle;shape=connector;rounded=0;orthogonalLoop=1;jettySize=auto;html=1;exitX=1;exitY=0.5;exitDx=0;exitDy=0;entryX=0;entryY=0.5;entryDx=0;entryDy=0;labelBackgroundColor=default;strokeColor=default;fontFamily=Helvetica;fontSize=11;fontColor=default;endArrow=none;endFill=0;" edge="1" parent="1" source="9SZ4BjFvW9n5TUdodfRy-21" target="9SZ4BjFvW9n5TUdodfRy-22">
          <mxGeometry relative="1" as="geometry" />
        </mxCell>
        <mxCell id="9SZ4BjFvW9n5TUdodfRy-21" value="EMITE" style="rhombus;whiteSpace=wrap;html=1;" vertex="1" parent="1">
          <mxGeometry x="530" y="760" width="130" height="60" as="geometry" />
        </mxCell>
        <mxCell id="9SZ4BjFvW9n5TUdodfRy-22" value="NOTAS_PEDIDOS" style="rounded=0;whiteSpace=wrap;html=1;" vertex="1" parent="1">
          <mxGeometry x="690" y="760" width="120" height="60" as="geometry" />
        </mxCell>
        <mxCell id="9SZ4BjFvW9n5TUdodfRy-31" style="edgeStyle=orthogonalEdgeStyle;rounded=0;orthogonalLoop=1;jettySize=auto;html=1;exitX=0.5;exitY=0;exitDx=0;exitDy=0;entryX=0.5;entryY=1;entryDx=0;entryDy=0;endArrow=none;endFill=0;" edge="1" parent="1" source="9SZ4BjFvW9n5TUdodfRy-23" target="9SZ4BjFvW9n5TUdodfRy-24">
          <mxGeometry relative="1" as="geometry" />
        </mxCell>
        <mxCell id="9SZ4BjFvW9n5TUdodfRy-32" style="edgeStyle=orthogonalEdgeStyle;rounded=0;orthogonalLoop=1;jettySize=auto;html=1;exitX=0.5;exitY=1;exitDx=0;exitDy=0;entryX=0.5;entryY=0;entryDx=0;entryDy=0;endArrow=none;endFill=0;" edge="1" parent="1" source="9SZ4BjFvW9n5TUdodfRy-23" target="9SZ4BjFvW9n5TUdodfRy-2">
          <mxGeometry relative="1" as="geometry" />
        </mxCell>
        <mxCell id="9SZ4BjFvW9n5TUdodfRy-23" value="POSSUI" style="rhombus;whiteSpace=wrap;html=1;" vertex="1" parent="1">
          <mxGeometry x="375" y="230" width="130" height="60" as="geometry" />
        </mxCell>
        <mxCell id="9SZ4BjFvW9n5TUdodfRy-29" style="edgeStyle=orthogonalEdgeStyle;rounded=0;orthogonalLoop=1;jettySize=auto;html=1;exitX=1;exitY=0.5;exitDx=0;exitDy=0;entryX=0;entryY=0.5;entryDx=0;entryDy=0;endArrow=none;endFill=0;" edge="1" parent="1" source="9SZ4BjFvW9n5TUdodfRy-24" target="9SZ4BjFvW9n5TUdodfRy-25">
          <mxGeometry relative="1" as="geometry" />
        </mxCell>
        <mxCell id="9SZ4BjFvW9n5TUdodfRy-24" value="PAGAMENTO" style="rounded=0;whiteSpace=wrap;html=1;" vertex="1" parent="1">
          <mxGeometry x="380" y="110" width="120" height="60" as="geometry" />
        </mxCell>
        <mxCell id="9SZ4BjFvW9n5TUdodfRy-30" style="edgeStyle=orthogonalEdgeStyle;rounded=0;orthogonalLoop=1;jettySize=auto;html=1;exitX=1;exitY=0.5;exitDx=0;exitDy=0;entryX=0;entryY=0.5;entryDx=0;entryDy=0;endArrow=none;endFill=0;" edge="1" parent="1" source="9SZ4BjFvW9n5TUdodfRy-25" target="9SZ4BjFvW9n5TUdodfRy-26">
          <mxGeometry relative="1" as="geometry" />
        </mxCell>
        <mxCell id="9SZ4BjFvW9n5TUdodfRy-25" value="PERTENCE" style="rhombus;whiteSpace=wrap;html=1;" vertex="1" parent="1">
          <mxGeometry x="530" y="110" width="130" height="60" as="geometry" />
        </mxCell>
        <mxCell id="9SZ4BjFvW9n5TUdodfRy-26" value="BANCO" style="rounded=0;whiteSpace=wrap;html=1;" vertex="1" parent="1">
          <mxGeometry x="690" y="110" width="120" height="60" as="geometry" />
        </mxCell>
        <mxCell id="9SZ4BjFvW9n5TUdodfRy-51" style="edgeStyle=orthogonalEdgeStyle;shape=connector;rounded=0;orthogonalLoop=1;jettySize=auto;html=1;exitX=0.5;exitY=1;exitDx=0;exitDy=0;entryX=0.5;entryY=0;entryDx=0;entryDy=0;labelBackgroundColor=default;strokeColor=default;fontFamily=Helvetica;fontSize=11;fontColor=default;endArrow=none;endFill=0;" edge="1" parent="1" source="9SZ4BjFvW9n5TUdodfRy-49" target="9SZ4BjFvW9n5TUdodfRy-19">
          <mxGeometry relative="1" as="geometry" />
        </mxCell>
        <mxCell id="9SZ4BjFvW9n5TUdodfRy-49" value="CONTEM" style="rhombus;whiteSpace=wrap;html=1;" vertex="1" parent="1">
          <mxGeometry x="375" y="660" width="130" height="60" as="geometry" />
        </mxCell>
      </root>
    </mxGraphModel>
  </diagram>
</mxfile>
